# xmcd
#
# Track frame offsets: 
#        183
#        14253
#        27560
#        40520
#        52123
#        64593
#        76955
#        87295
#        99245
#        111755
#        125868
#        138323
#        149733
#        163375
#        174245
#        189710
#        200678
#        215350
#        226685
#        231558
#        244673
#        255993
#        266643
#        276340
#
# Disc length: 3815 seconds
#
# Revision: 1
# Processed by: cddbd v1.5.2PL0 Copyright (c) Steve Scherf et al.
# Submitted via: ExactAudioCopy v1.0b1
#
DISCID=5f0ee518
DTITLE=Blue Guitar (varios) - The Sun Blues Archives
DYEAR=1900
DGENRE=
TTITLE0=Earl Hooker - The Hucklebuck
TTITLE1=Earl Hooker - Mexicali Hip-Shake
TTITLE2=Earl Hooker - The Drive
TTITLE3=Earl Hooker - Razorback
TTITLE4=Earl Hooker -  Blue Guitar
TTITLE5=Earl Hooker -  Red River Variations
TTITLE6=Earl Hooker -  Move on Down the Line
TTITLE7=Earl Hooker -  Guitar Rag
TTITLE8=Pinotop Perkins - Pinetop's Boogie Woogie
TTITLE9=Boyd Gilmore - Believe I'll Settle Down
TTITLE10=Charlie Booker - Walked all Night
TTITLE11=Coy Love An Pat Hare - Harping On It
TTITLE12=Coy Love An Pat Hare - Wolf Call Boogie
TTITLE13=L.B.Lawson and James Scott Blues Rockers - Flipaper Boogie
TTITLE14=L.B.Lawson and James Scott Blues Rockers - Got My Call Card
TTITLE15=L.B.Lawson and James Scott Blues Rockers - Scotts Boggie
TTITLE16=L.B.Lawson and James Scott Blues Rockers - Misssing In Action
TTITLE17=L.B.Lawson and James Scott Blues Rockers - Can't Love me and 
TTITLE17=my money too
TTITLE18=Woodrow Adams - If you don't want me
TTITLE19=Woodrow Adams - The last time
TTITLE20=Lewis-Johnson Combo - Baby Tell Me Your Name
TTITLE21=Lewis-Johnson Combo - Gonna Leave You Baby
TTITLE22=Lewis-Johnson Combo - So Long Baby, Goodbye
TTITLE23=Lewis-Johnson Combo - Feel So Worried
EXTD=
EXTT0=
EXTT1=
EXTT2=
EXTT3=
EXTT4=
EXTT5=
EXTT6=
EXTT7=
EXTT8=
EXTT9=
EXTT10=
EXTT11=
EXTT12=
EXTT13=
EXTT14=
EXTT15=
EXTT16=
EXTT17=
EXTT18=
EXTT19=
EXTT20=
EXTT21=
EXTT22=
EXTT23=
PLAYORDER=
